<svg class="ldi-h25hi5" width="200px"  height="200px"  xmlns="http://www.w3.org/2000/svg" xmlns:xlink="http://www.w3.org/1999/xlink" viewBox="0 0 100 100" preserveAspectRatio="xMidYMid" style="background: none;"><!--?xml version="1.0" encoding="utf-8"?--><!--Generator: Adobe Illustrator 21.0.0, SVG Export Plug-In . SVG Version: 6.00 Build 0)--><svg version="1.1" id="Layer_1" xmlns="http://www.w3.org/2000/svg" xmlns:xlink="http://www.w3.org/1999/xlink" x="0px" y="0px" viewBox="0 0 100 100" style="transform-origin: 50px 50px 0px;" xml:space="preserve"><g style="transform-origin: 50px 50px 0px; transform: scale(0.6);"><g style="transform-origin: 50px 50px 0px;"><style type="text/css" class="ld ld-blink" style="transform-origin: 50px 50px 0px; animation-duration: 1s; animation-delay: -1s;">.st0{fill:#F4E6C8;} .st1{opacity:0.8;fill:#849B87;} .st2{fill:#D65A62;} .st3{fill:#E15C64;} .st4{fill:#F47E5F;} .st5{fill:#F7B26A;} .st6{fill:#FEE8A2;} .st7{fill:#ACBD81;} .st8{fill:#F5E169;} .st9{fill:#F0AF6B;} .st10{fill:#EA7C60;} .st11{fill:#A8B980;} .st12{fill:#829985;} .st13{fill:#798AAE;} .st14{fill:#8672A7;} .st15{fill:#CC5960;} .st16{fill:#E17A5F;} .st17{fill:#849B87;} .st18{opacity:0.8;fill:#E15C64;} .st19{opacity:0.8;fill:#F7B26A;} .st20{fill:#79A5B5;} .st21{opacity:0.8;fill:#79A5B4;} .st22{fill:#666766;}</style><g class="ld ld-blink" style="transform-origin: 50px 50px 0px; animation-duration: 1s; animation-delay: -0.954545s;"><path class="st2" d="M50,27.5L50,27.5c-2.2,0-4-1.8-4-4v-12c0-2.2,1.8-4,4-4h0c2.2,0,4,1.8,4,4v12C54,25.7,52.2,27.5,50,27.5z" fill="rgb(214, 90, 98)" style="fill: rgb(214, 90, 98);"></path></g><g class="ld ld-blink" style="transform-origin: 50px 50px 0px; animation-duration: 1s; animation-delay: -0.909091s;"><path class="st10" d="M38.8,30.5L38.8,30.5c-1.9,1.1-4.4,0.4-5.5-1.5l-6-10.4c-1.1-1.9-0.4-4.4,1.5-5.5l0,0c1.9-1.1,4.4-0.4,5.5,1.5 l6,10.4C41.3,27,40.7,29.4,38.8,30.5z" fill="rgb(234, 124, 96)" style="fill: rgb(234, 124, 96);"></path></g><g class="ld ld-blink" style="transform-origin: 50px 50px 0px; animation-duration: 1s; animation-delay: -0.863636s;"><path class="st9" d="M30.5,38.7L30.5,38.7c-1.1,1.9-3.6,2.6-5.5,1.5l-10.4-6c-1.9-1.1-2.6-3.6-1.5-5.5l0,0c1.1-1.9,3.6-2.6,5.5-1.5 l10.4,6C31,34.4,31.6,36.8,30.5,38.7z" fill="rgb(240, 175, 107)" style="fill: rgb(240, 175, 107);"></path></g><g class="ld ld-blink" style="transform-origin: 50px 50px 0px; animation-duration: 1s; animation-delay: -0.818182s;"><path class="st2" d="M27.5,50L27.5,50c0,2.2-1.8,4-4,4h-12c-2.2,0-4-1.8-4-4v0c0-2.2,1.8-4,4-4h12C25.7,46,27.5,47.8,27.5,50z" fill="rgb(214, 90, 98)" style="fill: rgb(214, 90, 98);"></path></g><g class="ld ld-blink" style="transform-origin: 50px 50px 0px; animation-duration: 1s; animation-delay: -0.772727s;"><path class="st10" d="M30.5,61.2L30.5,61.2c1.1,1.9,0.4,4.4-1.5,5.5l-10.4,6c-1.9,1.1-4.4,0.4-5.5-1.5h0c-1.1-1.9-0.4-4.4,1.5-5.5 l10.4-6C27,58.7,29.4,59.3,30.5,61.2z" fill="rgb(234, 124, 96)" style="fill: rgb(234, 124, 96);"></path></g><g class="ld ld-blink" style="transform-origin: 50px 50px 0px; animation-duration: 1s; animation-delay: -0.727273s;"><path class="st9" d="M38.7,69.5L38.7,69.5c1.9,1.1,2.6,3.6,1.5,5.5l-6,10.4c-1.1,1.9-3.6,2.6-5.5,1.5l0,0c-1.9-1.1-2.6-3.6-1.5-5.5 l6-10.4C34.4,69,36.8,68.4,38.7,69.5z" fill="rgb(240, 175, 107)" style="fill: rgb(240, 175, 107);"></path></g><g class="ld ld-blink" style="transform-origin: 50px 50px 0px; animation-duration: 1s; animation-delay: -0.681818s;"><path class="st2" d="M50,72.5L50,72.5c2.2,0,4,1.8,4,4v12c0,2.2-1.8,4-4,4h0c-2.2,0-4-1.8-4-4v-12C46,74.3,47.8,72.5,50,72.5z" fill="rgb(214, 90, 98)" style="fill: rgb(214, 90, 98);"></path></g><g class="ld ld-blink" style="transform-origin: 50px 50px 0px; animation-duration: 1s; animation-delay: -0.636364s;"><path class="st10" d="M61.2,69.5L61.2,69.5c1.9-1.1,4.4-0.4,5.5,1.5l6,10.4c1.1,1.9,0.4,4.4-1.5,5.5v0c-1.9,1.1-4.4,0.4-5.5-1.5 l-6-10.4C58.7,73,59.3,70.6,61.2,69.5z" fill="rgb(234, 124, 96)" style="fill: rgb(234, 124, 96);"></path></g><g class="ld ld-blink" style="transform-origin: 50px 50px 0px; animation-duration: 1s; animation-delay: -0.590909s;"><path class="st9" d="M69.5,61.3L69.5,61.3c1.1-1.9,3.6-2.6,5.5-1.5l10.4,6c1.9,1.1,2.6,3.6,1.5,5.5h0c-1.1,1.9-3.6,2.6-5.5,1.5 l-10.4-6C69,65.6,68.4,63.2,69.5,61.3z" fill="rgb(240, 175, 107)" style="fill: rgb(240, 175, 107);"></path></g><g class="ld ld-blink" style="transform-origin: 50px 50px 0px; animation-duration: 1s; animation-delay: -0.545455s;"><path class="st2" d="M72.5,50L72.5,50c0-2.2,1.8-4,4-4h12c2.2,0,4,1.8,4,4v0c0,2.2-1.8,4-4,4h-12C74.3,54,72.5,52.2,72.5,50z" fill="rgb(214, 90, 98)" style="fill: rgb(214, 90, 98);"></path></g><g class="ld ld-blink" style="transform-origin: 50px 50px 0px; animation-duration: 1s; animation-delay: -0.5s;"><path class="st10" d="M69.5,38.8L69.5,38.8c-1.1-1.9-0.4-4.4,1.5-5.5l10.4-6c1.9-1.1,4.4-0.4,5.5,1.5l0,0c1.1,1.9,0.4,4.4-1.5,5.5 l-10.4,6C73,41.3,70.6,40.7,69.5,38.8z" fill="rgb(234, 124, 96)" style="fill: rgb(234, 124, 96);"></path></g><g class="ld ld-blink" style="transform-origin: 50px 50px 0px; animation-duration: 1s; animation-delay: -0.454545s;"><path class="st9" d="M61.3,30.5L61.3,30.5c-1.9-1.1-2.6-3.6-1.5-5.5l6-10.4c1.1-1.9,3.6-2.6,5.5-1.5v0c1.9,1.1,2.6,3.6,1.5,5.5 l-6,10.4C65.6,31,63.2,31.6,61.3,30.5z" fill="rgb(240, 175, 107)" style="fill: rgb(240, 175, 107);"></path></g><metadata xmlns:d="https://loading.io/stock/" class="ld ld-blink" style="transform-origin: 50px 50px 0px; animation-duration: 1s; animation-delay: -0.409091s;">
<d:name class="ld ld-blink" style="transform-origin: 50px 50px 0px; animation-duration: 1s; animation-delay: -0.363636s;">spinner</d:name>
<d:tags class="ld ld-blink" style="transform-origin: 50px 50px 0px; animation-duration: 1s; animation-delay: -0.318182s;">loader,preloader,ajax spin,loading icon,spinner,spinner</d:tags>
<d:license class="ld ld-blink" style="transform-origin: 50px 50px 0px; animation-duration: 1s; animation-delay: -0.272727s;">cc0</d:license>
<d:slug class="ld ld-blink" style="transform-origin: 50px 50px 0px; animation-duration: 1s; animation-delay: -0.227273s;">h25hi5</d:slug>
</metadata></g></g><style type="text/css" class="ld ld-blink" style="transform-origin: 50px 50px 0px; animation-duration: 1s; animation-delay: -0.181818s;">path,ellipse,circle,rect,polygon,polyline,line { stroke-width: 0; }@keyframes ld-blink {
  0% {
    opacity: 1;
  }
  49% {
    opacity: 1;
  }
  50% {
    opacity: 0;
  }
  100% {
    opacity: 0;
  }
}
@-webkit-keyframes ld-blink {
  0% {
    opacity: 1;
  }
  49% {
    opacity: 1;
  }
  50% {
    opacity: 0;
  }
  100% {
    opacity: 0;
  }
}
.ld.ld-blink {
  -webkit-animation: ld-blink 1s infinite linear;
  animation: ld-blink 1s infinite linear;
}
</style></svg></svg>